<svg xmlns="http://www.w3.org/2000/svg" viewBox="0 0 163.28 33.44"><defs><style>.cls-1{fill:#fff;}</style></defs><title>logotelovendo</title><g id="Capa_2" data-name="Capa 2"><g id="Layer_1" data-name="Layer 1"><path class="cls-1" d="M65.09,3.26c1.76-.32,3.53-.65,5.31-.88.36,8.43.5,16.87.53,25.32,4.46,0,8.91-.09,13.37-.19.14,1.81.3,3.63.4,5.46-6.37.35-12.76.33-19.14.16C65.86,23.17,65.73,13.2,65.09,3.26Z"/><path class="cls-1" d="M77.48,7.24a6.12,6.12,0,0,1,5.77,1.47c2.41,2.56,2.63,6.38,2.14,9.69-.42,2.55-1.6,5.43-4.26,6.33-2,.54-4.48.4-6-1.2-2.4-2.45-2.76-6.19-2.49-9.44C72.91,11.22,74.42,8,77.48,7.24ZM78.58,12c-1.38,1.27-1.26,3.45-1.13,5.18.24,1.15.41,3.31,2.09,3,1.56-2,1.58-4.92.74-7.23A1.25,1.25,0,0,0,78.58,12Z"/><path class="cls-1" d="M48.76,7c3.67.17,8.88.36,12.54.52,0-1.7.05-3.4,0-5.1C57,2.93,51.43,3.45,46.75,4.16c-4-.71-7.21-1.23-11.58-1.78,0,1.7,0,3.4,0,5.1,3.65-.16,5.7-.35,9.34-.52,0,1.32,0,2.64.05,4,0,7.39,0,14.79,0,22.18h0v0h4v0h.05q0-11.08,0-22.18C48.72,9.6,48.73,8.28,48.76,7Z"/><path class="cls-1" d="M51.16,33.08c3.18,0,6.36,0,9.55,0-.08-1.38-.22-2.76-.39-4.14-1.78,0-3.58,0-5.36.05-.17-2.89-.2-5.78-.16-8.67,1.88,0,3.77,0,5.66,0,.16-1.34.29-2.69.4-4-2,0-4,0-6,0,0-.74,0-1.5.09-2.24,2.22.08,4.43.1,6.66,0,.14-1.35.24-2.69.32-4H51C51,17.76,50.81,25.43,51.16,33.08Z"/><path class="cls-1" d="M3.67,28.13A5,5,0,0,1,7.44,30a4.78,4.78,0,0,1,.5,3.44A5.64,5.64,0,0,0,6,30.54a5.77,5.77,0,0,1,1.46,2.81C5.16,32.72,3.93,30.33,3.67,28.13Z"/><path class="cls-1" d="M1,29a2.81,2.81,0,0,1,1.94.1c.52.28.67.9.87,1.41l-1.3-.91a9,9,0,0,1,1,1.12A2.7,2.7,0,0,1,1,29Z"/><path class="cls-1" d="M0,31.82a4.46,4.46,0,0,1,3.05-.65,3,3,0,0,1,1.67,1.47A6,6,0,0,0,2.41,32c.67.24,1.5.28,1.91.93A4.24,4.24,0,0,1,0,31.82Z"/><path class="cls-1" d="M36.25,30.1a4.83,4.83,0,0,1,3.83-2c-.26,2.22-1.51,4.56-3.77,5.24a6,6,0,0,1,1.37-2.8,5.42,5.42,0,0,0-1.84,2.86A4.48,4.48,0,0,1,36.25,30.1Z"/><path class="cls-1" d="M40,30.44A1.79,1.79,0,0,1,41.14,29a3.41,3.41,0,0,1,1.65,0,2.7,2.7,0,0,1-2.25,1.7l-.23-.26Z"/><path class="cls-1" d="M39,32.65a2.9,2.9,0,0,1,1.85-1.51,4.65,4.65,0,0,1,2.89.69,3.81,3.81,0,0,1-2.85,1.29c-.52,0-1.12.06-1.51-.36a7.88,7.88,0,0,1,2-.71A5.44,5.44,0,0,0,39,32.65Z"/><path class="cls-1" d="M13.39,29.88a2.26,2.26,0,0,1,3.1-2.61c1.93.93,2,3.72.6,5.16-.73,1.1-2.18.51-3.27.63a4,4,0,0,0,2.63-1.52,2.84,2.84,0,0,0,.24-3.13,1.47,1.47,0,0,0-2.48.78c-.15.63.7,1.2.33,1.79C13.85,31.39,13.53,30.38,13.39,29.88Z"/><path class="cls-1" d="M19.38,3.94a3.67,3.67,0,0,1,2.4-1.56,2.85,2.85,0,0,1,2.15,1.1c1.93,2.1,3.79,4.26,5.74,6.34a3.68,3.68,0,0,0-4.07.9,3.68,3.68,0,0,0-2-.53c-.64.2-.6,1-.62,1.5,0,4.91,0,9.81,0,14.71a25.73,25.73,0,0,0,.7,6.67l-1.87,0c-.11-.42-.09-.92-.42-1.24a3,3,0,0,0-1.74-.58c1.94-.84,2.65-3,2.65-5,.08-4.78,0-9.58,0-14.36,0-.59,0-1.4-.64-1.67-.93-.32-1.81.26-2.69.44a9.71,9.71,0,0,0-3.15-.94c-.08,1.61.57,3.14.47,4.74a5.74,5.74,0,0,0,1.9,4.43c.53.48,1.28.74,1.61,1.41a27.25,27.25,0,0,1-2.49,1.21c-.18.43.12.94.13,1.39l-1-1-.75.39c.2.55.4,1.1.59,1.65-.53-.34-1-.71-1.52-1.09-.22.17-.43.35-.64.53.33.41.65.83,1,1.25l-1.81-.56-.75.91a16.41,16.41,0,0,1,1.57,1c-.69,0-1.38,0-2.07-.08-.88,2.24-.65,4.73-.32,7.05a8.14,8.14,0,0,1-2.26,0c-.6-.2-.7-.92-.69-1.47,0-3.29,0-6.58,0-9.87-1.35-.14-2.77.21-4.08-.22-.69-.33-.13-1.13.22-1.52Q12.21,11.93,19.38,3.94Z"/><path class="cls-1" d="M38.82,20.06c-2.53-2.86-5.1-5.69-7.65-8.53a9.23,9.23,0,0,1,.39,4.83c-.1.5-.51,1.33-1.13.93-1.13-1-1.46-2.48-2-3.79a7.44,7.44,0,0,1-.05,2.62,5.85,5.85,0,0,1-3.46,4c.75,1.17,1.67,2.46,1.42,3.93-.32,2.11-.74,4.21-1.13,6.31a4.36,4.36,0,0,1,2.72,1.31c.33.47-.07,1-.27,1.41,1.86,0,3.71,0,5.56,0a2.71,2.71,0,0,0,1.16-.17c.53-.36.49-1.07.51-1.63,0-3.21,0-6.43,0-9.64a23.49,23.49,0,0,0,3.94-.15C39.52,21.31,39.21,20.42,38.82,20.06ZM30.1,27.61h-2v-2h2Zm0-2.94h-2v-2h2Zm2.7,2.93h-2v-2h2Zm0-2.94h-2v-2h2Z"/><path class="cls-1" d="M99.38,1.05c5.7-.67,12.05-.4,17.76-1,0,1.92,0,2.62,0,4.53-4.13-.18-9-.37-13.08-.59-1.74,10-4.75,19.67-7.15,29.5l-5.19-.06c-1.49-8.81-2.56-17.68-4.17-26.47,1.7.17,3.52-.09,5.14.51,1.19,5.05,1,10.37,2.51,15.34C96.62,15.53,98.13,8.32,99.38,1.05Z"/><path class="cls-1" d="M135,7.64c2.92-.49,6.38-1,8.85,1.06,2.85,2.46,3.9,6.39,4.12,10,.14,4.17-.67,8.65-3.39,11.93-2.38,2.71-6.28,2.88-9.63,2.77A192.86,192.86,0,0,0,135,7.64Zm5,4.14c0,5.6,0,11.2,0,16.8,2.73-2.46,3.39-6.33,3.27-9.82C143.17,16.11,142.41,13.19,140,11.78Z"/><path class="cls-1" d="M104.82,8q6.17-.06,12.31,0c-.16,1.49-.31,3-.47,4.47-2.45,0-4.9,0-7.35,0-.1.81-.18,1.62-.27,2.44q3.4,0,6.8,0c-.11,1.49-.25,3-.37,4.47-2.15.06-4.3,0-6.46,0,0,3.22,0,6.44.25,9.65,2,0,4,0,6,0,.14,1.49.29,3,.45,4.49-3.6,0-7.19,0-10.79,0C104.67,24.92,104.76,16.43,104.82,8Z"/><path class="cls-1" d="M119.06,7.49c1.24.09,2.63-.4,3.79.11,2,4.21,3.45,8.63,5.36,12.87,0-4.3-.37-8.58-.39-12.87l4.54-.28q0,12.9,0,25.81c-1.6.14-3.2.22-4.8.31-1.47-4.17-2.63-8.47-4.33-12.56.09,4.18.22,8.36.31,12.54-1.53-.08-3-.14-4.57-.2C119,24.64,119,16.07,119.06,7.49Z"/><path class="cls-1" d="M161.12,9.86a5.21,5.21,0,0,0-6-2.58c-2.31.69-3.58,3-4.26,5.17a28.45,28.45,0,0,0-.67,12.21c.45,2.68,1.15,5.54,3.14,7.52a4.74,4.74,0,0,0,6.87-.45c2.28-2.85,2.77-6.66,3-10.18C163.36,17.59,163.12,13.37,161.12,9.86Zm-9.28,12.85c-1.11-.63-.69-2.54.47-2.86C154.39,19.49,153.67,23.21,151.84,22.71Zm2,2.69a2.06,2.06,0,0,1,.48-3.06,1.13,1.13,0,0,1,1.65.95C156.33,24.47,155.17,26.15,153.89,25.4Zm1.2-4.65c-.43-.29-.86-.59-1.27-.91a5.45,5.45,0,0,1-1.1-1.15,2.29,2.29,0,0,1-.39-1.41,2,2,0,0,1,.8-1.44,2.39,2.39,0,0,1,2.92.1,2.3,2.3,0,0,1,1.22-.9,2.22,2.22,0,0,1,1.2-.08,2.07,2.07,0,0,1,1.13.64,2,2,0,0,1,.51,1.28,2.68,2.68,0,0,1-.34,1.35,7.69,7.69,0,0,1-.66,1.05c-.7.91-1.49,1.76-2.25,2.63Zm3.29,5a2.07,2.07,0,0,1-.75-3,1.12,1.12,0,0,1,1.88.23C160.27,23.94,159.86,25.94,158.38,25.76Zm2.77-3.52A1.76,1.76,0,0,1,160,19.35C161.6,18.68,162.84,21.61,161.15,22.24Z"/></g></g></svg>